<svg width="32" height="32" viewBox="0 0 32 32" fill="none" xmlns="http://www.w3.org/2000/svg">
<rect x="0.5" y="0.5" width="31" height="31" rx="3.5" stroke="#DFE3E8"/>
<path d="M19.7633 12.2332C18.7966 11.2665 17.4699 10.6665 15.9966 10.6665C13.0499 10.6665 10.6699 13.0532 10.6699 15.9998C10.6699 18.9465 13.0499 21.3332 15.9966 21.3332C18.4833 21.3332 20.5566 19.6332 21.1499 17.3332H19.7633C19.2166 18.8865 17.7366 19.9998 15.9966 19.9998C13.7899 19.9998 11.9966 18.2065 11.9966 15.9998C11.9966 13.7932 13.7899 11.9998 15.9966 11.9998C17.1033 11.9998 18.0899 12.4598 18.8099 13.1865L16.6633 15.3332H21.3299V10.6665L19.7633 12.2332Z" fill="#172B4D"/>
</svg>
